<?xml version="1.0" encoding="UTF-8" standalone="no"?>
<!-- Created with Inkscape (http://www.inkscape.org/) -->

<svg
   width="100"
   height="100"
   viewBox="0 0 26.458333 26.458333"
   version="1.1"
   id="svg5"
   inkscape:version="1.1.2 (0a00cf5339, 2022-02-04)"
   sodipodi:docname="RedStar.svg"
   xmlns:inkscape="http://www.inkscape.org/namespaces/inkscape"
   xmlns:sodipodi="http://sodipodi.sourceforge.net/DTD/sodipodi-0.dtd"
   xmlns="http://www.w3.org/2000/svg"
   xmlns:svg="http://www.w3.org/2000/svg">
  <sodipodi:namedview
     id="namedview7"
     pagecolor="#ffffff"
     bordercolor="#666666"
     borderopacity="1.0"
     inkscape:pageshadow="2"
     inkscape:pageopacity="0.0"
     inkscape:pagecheckerboard="0"
     inkscape:document-units="mm"
     showgrid="false"
     inkscape:snap-page="true"
     inkscape:zoom="9.7637262"
     inkscape:cx="10.754091"
     inkscape:cy="22.583591"
     inkscape:window-width="1920"
     inkscape:window-height="1016"
     inkscape:window-x="0"
     inkscape:window-y="0"
     inkscape:window-maximized="1"
     inkscape:current-layer="layer1"
     inkscape:snap-global="false"
     units="px"
     width="100px" />
  <defs
     id="defs2" />
  <g
     inkscape:label="Layer 1"
     inkscape:groupmode="layer"
     id="layer1">
    <path
       sodipodi:type="star"
       style="opacity:1;fill:#ff2a2a;fill-opacity:1;stroke:#ff8080;stroke-width:5.38961;stroke-miterlimit:4;stroke-dasharray:none"
       id="path1213"
       inkscape:flatsided="false"
       sodipodi:sides="100"
       sodipodi:cx="187.53659"
       sodipodi:cy="185.38892"
       sodipodi:r1="154.82491"
       sodipodi:r2="161.27594"
       sodipodi:arg1="0.5740038"
       sodipodi:arg2="0.60541973"
       inkscape:rounded="0"
       inkscape:randomized="0"
       d="m 317.54827,269.45861 2.59961,7.71361 -8.13493,0.284 2.11013,7.86162 -8.13671,-0.22736 1.61233,7.97861 -8.10638,-0.73783 1.10817,8.06411 -8.04405,-1.24537 0.59963,8.11777 -7.94998,-1.748 0.0887,8.1394 -7.82454,-2.24374 -0.42252,8.12892 -7.66822,-2.73062 -0.9321,8.08635 -7.48163,-3.20672 -1.43801,8.01186 -7.26551,-3.67017 -1.93824,7.90576 -7.02072,-4.11913 -2.43083,7.76845 -6.74823,-4.55184 -2.91381,7.6005 -6.4491,-4.96658 -3.3853,7.40253 -6.12452,-5.36172 -3.84343,7.17536 -5.77577,-5.7357 -4.28639,6.91987 -5.40422,-6.08705 -4.71244,6.63707 -5.01135,-6.41436 -5.11988,6.32807 -4.5987,-6.71637 -5.50712,5.99411 -4.1679,-6.99188 -5.87263,5.63649 -3.72065,-7.23979 -6.21496,5.25662 -3.25872,-7.45912 -6.53276,4.85601 -2.78393,-7.64902 -6.82478,4.43623 -2.29815,-7.80873 -7.08987,3.99894 -1.80329,-7.93762 -7.32698,3.54587 -1.30133,-8.03519 -7.53516,3.07882 -0.79423,-8.10105 -7.713617,2.5996 -0.283995,-8.13493 -7.861623,2.11013 0.227361,-8.13671 -7.978605,1.61233 0.737821,-8.10637 -8.064101,1.10817 1.245369,-8.04406 -8.117771,0.59963 1.748001,-7.94998 -8.139403,0.0887 2.243736,-7.82454 -8.128914,-0.42252 2.730616,-7.66821 -8.086344,-0.93211 3.206719,-7.48162 -8.011859,-1.43801 3.670165,-7.26551 -7.905756,-1.93825 4.119129,-7.02072 -7.768452,-2.43082 4.551835,-6.74823 -7.600491,-2.91381 4.966578,-6.4491 -7.402532,-3.3853 5.361719,-6.12452 -7.17536,-3.84343 5.735701,-5.77577 -6.919871,-4.28639 6.087047,-5.40423 -6.637071,-4.71243 6.414369,-5.01135 -6.328078,-5.11988 6.716377,-4.5987 -5.994111,-5.50712 6.991878,-4.1679 -5.636487,-5.87263 7.239786,-3.72066 -5.25662,-6.21495 7.459122,-3.25872 -4.856007,-6.53277 7.649019,-2.78392 -4.436229,-6.82478 7.808731,-2.29815 -3.998944,-7.08987 7.937623,-1.8033 -3.545876,-7.32697 8.035191,-1.30133 -3.078815,-7.53517 8.101046,-0.79423 -2.599603,-7.713611 8.134931,-0.283996 -2.110131,-7.861623 8.136711,0.227362 -1.612332,-7.978606 8.106378,0.737821 -1.10817,-8.064101 8.044055,1.245369 -0.599634,-8.117771 7.949984,1.748002 -0.08873,-8.139404 7.824539,2.243736 0.422521,-8.128914 7.668216,2.730616 0.9321,-8.086343 7.48163,3.206718 1.43801,-8.011859 7.26551,3.670166 1.93824,-7.905756 7.02073,4.119129 2.43082,-7.768453 6.74823,4.551835 2.91381,-7.60049 6.4491,4.966578 3.3853,-7.402533 6.12452,5.36172 3.84343,-7.175361 5.77577,5.735701 4.28639,-6.91987 5.40422,6.087046 4.71244,-6.637071 5.01135,6.414369 5.11988,-6.328078 4.5987,6.716377 5.50712,-5.994111 4.1679,6.991879 5.87263,-5.636488 3.72065,7.239786 6.21496,-5.25662 3.25872,7.459122 6.53276,-4.856007 2.78393,7.64902 6.82478,-4.436229 2.29815,7.80873 7.08987,-3.998944 1.8033,7.937624 7.32697,-3.545876 1.30133,8.03519 7.53516,-3.078815 0.79423,8.101046 7.71362,-2.599602 0.28399,8.134931 7.86163,-2.110132 -0.22737,8.136711 7.97861,-1.612332 -0.73782,8.106379 8.0641,-1.10817 -1.24537,8.044054 8.11777,-0.599634 -1.748,7.949984 8.1394,-0.08873 -2.24373,7.824538 8.12891,0.422521 -2.73061,7.668211 8.08634,0.93211 -3.20672,7.48162 8.01186,1.43802 -3.67017,7.26551 7.90576,1.93824 -4.11913,7.02072 7.76845,2.43083 -4.55183,6.74822 7.60049,2.91382 -4.96658,6.44909 7.40253,3.38531 -5.36172,6.12451 7.17537,3.84344 -5.73571,5.77576 6.91987,4.28639 -6.08704,5.40423 6.63707,4.71243 -6.41437,5.01135 6.32808,5.11989 -6.71638,4.59869 5.99411,5.50713 -6.99188,4.1679 5.63649,5.87263 -7.23978,3.72065 5.25662,6.21496 -7.45913,3.25872 4.85601,6.53276 -7.64902,2.78393 4.43623,6.82478 -7.80873,2.29814 3.99894,7.08987 -7.93762,1.8033 3.54588,7.32697 -8.03519,1.30134 3.07881,7.53516 z"
       transform="matrix(0.07965641,0,0,0.07968867,-1.7090892,-1.5583109)" />
  </g>
</svg>
