<?xml version="1.0" encoding="UTF-8" standalone="no"?>
<!-- Created with Inkscape (http://www.inkscape.org/) -->

<svg
   width="229.67993"
   height="156.52306"
   viewBox="0 0 60.769479 41.413398"
   version="1.1"
   id="svg2444"
   inkscape:version="1.1.2 (0a00cf5339, 2022-02-04)"
   sodipodi:docname="Rock16.svg"
   xmlns:inkscape="http://www.inkscape.org/namespaces/inkscape"
   xmlns:sodipodi="http://sodipodi.sourceforge.net/DTD/sodipodi-0.dtd"
   xmlns="http://www.w3.org/2000/svg"
   xmlns:svg="http://www.w3.org/2000/svg">
  <sodipodi:namedview
     id="namedview2446"
     pagecolor="#ffffff"
     bordercolor="#666666"
     borderopacity="1.0"
     inkscape:pageshadow="2"
     inkscape:pageopacity="0.0"
     inkscape:pagecheckerboard="0"
     inkscape:document-units="mm"
     showgrid="false"
     units="px"
     inkscape:snap-global="false"
     inkscape:zoom="0.62785649"
     inkscape:cx="-254.03894"
     inkscape:cy="209.44277"
     inkscape:window-width="1830"
     inkscape:window-height="1016"
     inkscape:window-x="0"
     inkscape:window-y="0"
     inkscape:window-maximized="1"
     inkscape:current-layer="layer1" />
  <defs
     id="defs2441" />
  <g
     inkscape:label="Layer 1"
     inkscape:groupmode="layer"
     id="layer1"
     transform="translate(-199.74068,-48.000363)">
    <path
       style="fill:#808080;stroke:none;stroke-width:0.264583px;stroke-linecap:butt;stroke-linejoin:miter;stroke-opacity:1"
       d="m 186.94559,166.56094 -4.0123,26.11415 -20.97153,-11.799 -27.69384,-2.15058 -10.54126,-25.34026 15.02645,-11.72317 34.973,-6.27535 z"
       id="path2694"
       sodipodi:nodetypes="cccccccc" />
    <path
       style="fill:#808080;stroke:none;stroke-width:0.264583px;stroke-linecap:butt;stroke-linejoin:miter;stroke-opacity:1"
       d="m 135.03092,180.97907 25.69579,2.16307 22.46671,12.26111 3.56058,13.14299 -5.46846,10.3613 -13.43081,-1.35748 -14.1904,4.8424 -25.23169,-12.73521 -2.44812,-13.51624 z"
       id="path4378"
       sodipodi:nodetypes="cccccccccc" />
    <path
       style="fill:#808080;stroke:none;stroke-width:0.264583px;stroke-linecap:butt;stroke-linejoin:miter;stroke-opacity:1"
       d="m 167.82689,219.36472 13.5124,1.53029 1.59225,12.99621 -3.73116,17.33323 -7.76678,-1.30919 -9.65051,-12.12314 -7.06712,-3.4422 0.24731,-10.50658 z"
       id="path4892"
       sodipodi:nodetypes="ccccccccc" />
    <path
       style="fill:#808080;stroke:none;stroke-width:0.264583px;stroke-linecap:butt;stroke-linejoin:miter;stroke-opacity:1"
       d="m 153.25327,234.26112 0.11782,-10.4394 -24.98912,-12.55326 -33.859714,10.23552 -0.8743,7.88863 47.929294,13.39911 z"
       id="path4894"
       sodipodi:nodetypes="ccccccc" />
    <path
       style="fill:#808080;stroke:none;stroke-width:0.264583px;stroke-linecap:butt;stroke-linejoin:miter;stroke-opacity:1"
       d="m 121.66474,153.85601 -19.61995,-9.14411 -15.113002,9.40533 0.100689,17.61207 10.626443,13.70436 26.41086,9.31021 8.68157,-13.73015 z"
       id="path5028"
       sodipodi:nodetypes="cccccccc" />
    <path
       style="fill:#808080;stroke:none;stroke-width:0.264583px;stroke-linecap:butt;stroke-linejoin:miter;stroke-opacity:1"
       d="m 124.11897,196.42395 2.40636,13.96193 -33.226169,9.62692 -24.30498,-21.61393 27.545075,-11.74507 z"
       id="path5922"
       sodipodi:nodetypes="cccccc" />
    <path
       style="fill:#808080;stroke:none;stroke-width:0.264583px;stroke-linecap:butt;stroke-linejoin:miter;stroke-opacity:1"
       d="M 95.693949,185.45332 85.35597,172.73134 v -18.5536 l -16.549939,1.08915 -12.668387,26.38035 12.499679,15.31941 z"
       id="path7116"
       sodipodi:nodetypes="ccccccc" />
    <path
       style="fill:#808080;stroke:none;stroke-width:0.264583px;stroke-linecap:butt;stroke-linejoin:miter;stroke-opacity:1"
       d="m 66.223664,199.35637 -25.013371,5.97139 -1.381462,12.96413 28.858725,5.33935 z"
       id="path7678"
       sodipodi:nodetypes="ccccc" />
    <path
       style="fill:#808080;stroke:none;stroke-width:0.264583px;stroke-linecap:butt;stroke-linejoin:miter;stroke-opacity:1"
       d="m 66.092505,197.6885 -12.366156,-16.02666 -19.75036,0.0146 -5.944868,24.84039 z"
       id="path7680"
       sodipodi:nodetypes="ccccc" />
    <path
       style="fill:#808080;stroke:none;stroke-width:0.264583px;stroke-linecap:butt;stroke-linejoin:miter;stroke-opacity:1"
       d="m 61.359209,165.17836 -7.149351,14.57613 -31.603131,-0.72547 -1.102297,-10.42954 24.74011,-8.14779 z"
       id="path7682"
       sodipodi:nodetypes="cccccc" />
    <path
       style="fill:#808080;stroke:none;stroke-width:0.264583px;stroke-linecap:butt;stroke-linejoin:miter;stroke-opacity:1"
       d="m 39.198484,205.25147 -30.9533132,8.29726 29.4287772,4.22544 z"
       id="path7736"
       sodipodi:nodetypes="cccc" />
    <path
       style="fill:#808080;stroke:none;stroke-width:0.264583px;stroke-linecap:butt;stroke-linejoin:miter;stroke-opacity:1"
       d="m 7.4152608,192.76792 v 7.38376 l 12.2283722,9.10489 5.186771,-1.73333 6.294122,-26.03049 -8.557144,-0.0277 z"
       id="path7738"
       sodipodi:nodetypes="ccccccc" />
    <path
       style="fill:#808080;stroke:none;stroke-width:0.264583px;stroke-linecap:butt;stroke-linejoin:miter;stroke-opacity:1"
       d="m 6.7027953,172.23425 -0.1483576,16.32229 13.7290093,-8.99937 -1.41088,-9.84649 z"
       id="path7740"
       sodipodi:nodetypes="ccccc" />
    <path
       style="fill:#808080;stroke:none;stroke-width:0.264583px;stroke-linecap:butt;stroke-linejoin:miter;stroke-opacity:1"
       d="M 7.3780537,202.36418 7.4126827,212.6201 17.65921,210.05875 Z"
       id="path5681"
       sodipodi:nodetypes="cccc" />
    <path
       style="fill:#808080;stroke:none;stroke-width:0.264583px;stroke-linecap:butt;stroke-linejoin:miter;stroke-opacity:1"
       d="m 48.772077,159.80687 12.942273,3.6941 4.243463,-7.91762 z"
       id="path6956"
       sodipodi:nodetypes="cccc" />
    <path
       style="fill:#808080;stroke:none;stroke-width:0.264583px;stroke-linecap:butt;stroke-linejoin:miter;stroke-opacity:1"
       d="m 104.0588,143.96199 18.08846,8.75509 14.39891,-11.26018 z"
       id="path7954"
       sodipodi:nodetypes="cccc" />
    <path
       style="fill:#808080;stroke:none;stroke-width:0.264583px;stroke-linecap:butt;stroke-linejoin:miter;stroke-opacity:1"
       d="m 143.0157,243.21942 10.99896,-8.17982 7.41844,3.5551 8.57017,10.92267 z"
       id="path9403"
       sodipodi:nodetypes="ccccc" />
    <path
       style="fill:#808080;stroke:none;stroke-width:0.264583px;stroke-linecap:butt;stroke-linejoin:miter;stroke-opacity:1"
       d="m 68.079685,199.74739 3.149731,24.58089 21.297625,4.80231 0.814099,-7.02343 z"
       id="path9846"
       sodipodi:nodetypes="ccccc" />
    <path
       style="fill:#808080;stroke:none;stroke-width:0.264583px;stroke-linecap:butt;stroke-linejoin:miter;stroke-opacity:1"
       d="M 1.8053647,6.0115438 1.6570071,22.333834 15.386016,13.334464 13.975136,3.4879738 Z"
       id="path10985"
       sodipodi:nodetypes="ccccc" />
    <path
       style="fill:#808080;stroke:none;stroke-width:0.264583px;stroke-linecap:butt;stroke-linejoin:miter;stroke-opacity:1"
       d="m 3.0695371,35.586242 v 7.38376 l 12.2283719,9.10489 5.186771,-1.73333 6.294122,-26.03049 -8.557144,-0.0277 z"
       id="path11153"
       sodipodi:nodetypes="ccccccc" />
    <path
       style="fill:#808080;stroke:none;stroke-width:0.264583px;stroke-linecap:butt;stroke-linejoin:miter;stroke-opacity:1"
       d="m 3.4150449,55.857112 0.034629,10.25592 10.2465271,-2.56135 z"
       id="path11305"
       sodipodi:nodetypes="cccc" />
    <path
       style="fill:#808080;stroke:none;stroke-width:0.264583px;stroke-linecap:butt;stroke-linejoin:miter;stroke-opacity:1"
       d="m 39.198484,205.25147 -30.9533132,8.29726 29.4287772,4.22544 z"
       id="path11389"
       sodipodi:nodetypes="cccc" />
    <path
       style="fill:#808080;stroke:none;stroke-width:0.264583px;stroke-linecap:butt;stroke-linejoin:miter;stroke-opacity:1"
       d="M 32.823209,67.38946 1.8698957,75.68672 31.298673,79.91216 Z"
       id="path11391"
       sodipodi:nodetypes="cccc" />
    <path
       style="fill:#808080;stroke:none;stroke-width:0.264583px;stroke-linecap:butt;stroke-linejoin:miter;stroke-opacity:1"
       d="M 65.406713,-1.1387816 58.257362,13.437348 26.654231,12.711878 25.551934,2.2823384 50.292044,-5.865452 Z"
       id="path11584"
       sodipodi:nodetypes="cccccc" />
    <path
       style="fill:#808080;stroke:none;stroke-width:0.264583px;stroke-linecap:butt;stroke-linejoin:miter;stroke-opacity:1"
       d="m 71.900025,41.771077 -12.366156,-16.02666 -19.75036,0.0146 -5.944868,24.84039 z"
       id="path12059"
       sodipodi:nodetypes="ccccc" />
    <path
       style="fill:#808080;stroke:none;stroke-width:0.264583px;stroke-linecap:butt;stroke-linejoin:miter;stroke-opacity:1"
       d="m 64.573206,-10.135516 12.942273,3.6941 4.243463,-7.91762 z"
       id="path12160"
       sodipodi:nodetypes="cccc" />
    <path
       style="fill:#808080;stroke:none;stroke-width:0.264583px;stroke-linecap:butt;stroke-linejoin:miter;stroke-opacity:1"
       d="m 71.772743,59.717452 -25.013371,5.97139 -1.381462,12.96413 28.858725,5.33935 z"
       id="path12319"
       sodipodi:nodetypes="ccccc" />
    <path
       style="fill:#808080;stroke:none;stroke-width:0.264583px;stroke-linecap:butt;stroke-linejoin:miter;stroke-opacity:1"
       d="M 111.61525,26.530078 101.27727,13.808098 V -4.7455025 l -16.549943,1.08915 -12.668387,26.3803505 12.499679,15.31941 z"
       id="path12398"
       sodipodi:nodetypes="ccccccc" />
    <path
       style="fill:#808080;stroke:none;stroke-width:0.264583px;stroke-linecap:butt;stroke-linejoin:miter;stroke-opacity:1"
       d="m 144.18191,48.172519 2.40636,13.96193 -33.22617,9.62692 -24.304979,-21.61393 27.545079,-11.74507 z"
       id="path12474"
       sodipodi:nodetypes="cccccc" />
    <path
       style="fill:#808080;stroke:none;stroke-width:0.264583px;stroke-linecap:butt;stroke-linejoin:miter;stroke-opacity:1"
       d="m 81.125205,68.826336 3.149731,24.58089 21.297624,4.80231 0.8141,-7.02343 z"
       id="path12555"
       sodipodi:nodetypes="ccccc" />
    <path
       style="fill:#808080;stroke:none;stroke-width:0.264583px;stroke-linecap:butt;stroke-linejoin:miter;stroke-opacity:1"
       d="m 146.72695,-12.451738 -19.61995,-9.14411 -15.113,9.40533 0.10069,17.6120703 10.62644,13.7043597 26.41086,9.31021 8.68157,-13.73015 z"
       id="path12635"
       sodipodi:nodetypes="cccccccc" />
    <path
       style="fill:#808080;stroke:none;stroke-width:0.264583px;stroke-linecap:butt;stroke-linejoin:miter;stroke-opacity:1"
       d="m 154.75279,-27.198527 18.08846,8.75509 14.39891,-11.26018 z"
       id="path12717"
       sodipodi:nodetypes="cccc" />
    <path
       style="fill:#808080;stroke:none;stroke-width:0.264583px;stroke-linecap:butt;stroke-linejoin:miter;stroke-opacity:1"
       d="m 185.59958,99.341634 0.11782,-10.4394 -24.98912,-12.55326 -33.85972,10.23552 -0.8743,7.88863 47.9293,13.399106 z"
       id="path12801"
       sodipodi:nodetypes="ccccccc" />
    <path
       style="fill:#808080;stroke:none;stroke-width:0.264583px;stroke-linecap:butt;stroke-linejoin:miter;stroke-opacity:1"
       d="m 231.02546,20.935074 -4.0123,26.11415 -20.97153,-11.799 -27.69384,-2.15058 -10.54126,-25.3402597 15.02645,-11.7231698 34.973,-6.2753505 z"
       id="path12856"
       sodipodi:nodetypes="cccccccc" />
    <path
       style="fill:#808080;stroke:none;stroke-width:0.264583px;stroke-linecap:butt;stroke-linejoin:miter;stroke-opacity:1"
       d="m 208.78708,48.000363 25.69579,2.16307 22.46671,12.26111 3.56058,13.14299 -5.46846,10.3613 -13.43081,-1.35748 -14.1904,4.8424 -25.23169,-12.73521 -2.44812,-13.51624 z"
       id="path12928"
       sodipodi:nodetypes="cccccccccc" />
  </g>
</svg>
