<?xml version="1.0" encoding="UTF-8" standalone="no"?>
<!-- Created with Inkscape (http://www.inkscape.org/) -->

<svg
   width="800"
   height="500"
   viewBox="0 0 211.66666 132.29167"
   version="1.1"
   id="svg5"
   inkscape:version="1.1.2 (0a00cf5339, 2022-02-04)"
   sodipodi:docname="dfsfasd.svg"
   xmlns:inkscape="http://www.inkscape.org/namespaces/inkscape"
   xmlns:sodipodi="http://sodipodi.sourceforge.net/DTD/sodipodi-0.dtd"
   xmlns="http://www.w3.org/2000/svg"
   xmlns:svg="http://www.w3.org/2000/svg">
  <sodipodi:namedview
     id="namedview7"
     pagecolor="#ffffff"
     bordercolor="#666666"
     borderopacity="1.0"
     inkscape:pageshadow="2"
     inkscape:pageopacity="0.0"
     inkscape:pagecheckerboard="0"
     inkscape:document-units="mm"
     showgrid="false"
     units="px"
     inkscape:snap-global="false"
     inkscape:zoom="0.69664703"
     inkscape:cx="396.90114"
     inkscape:cy="204.55122"
     inkscape:window-width="1830"
     inkscape:window-height="1016"
     inkscape:window-x="0"
     inkscape:window-y="0"
     inkscape:window-maximized="1"
     inkscape:current-layer="layer1" />
  <defs
     id="defs2" />
  <g
     inkscape:label="Layer 1"
     inkscape:groupmode="layer"
     id="layer1">
    <path
       style="fill:none;stroke:#000000;stroke-width:0.264583px;stroke-linecap:butt;stroke-linejoin:miter;stroke-opacity:1"
       d="M 35.35248,60.290735 11.382188,54.653061 6.0575648,45.131589 19.938008,25.265705 96.17345,12.947791 l 28.17328,1.955404 z"
       id="path857"
       sodipodi:nodetypes="ccccccc" />
    <path
       style="fill:none;stroke:#000000;stroke-width:0.264583px;stroke-linecap:butt;stroke-linejoin:miter;stroke-opacity:1"
       d="m 11.381993,62.704813 32.32118,6.87489 36.978127,21.89461 21.17953,29.762017 -15.966244,3.64959 L 43.094909,113.15084 14.46338,85.010375 Z"
       id="path1029" />
    <path
       style="fill:none;stroke:#000000;stroke-width:0.264583px;stroke-linecap:butt;stroke-linejoin:miter;stroke-opacity:1"
       d="M 58.811911,55.00357 88.085826,40.954108 136.73673,34.772049 157.53497,40.363645 140.75128,60.73314 96.843375,66.203083 Z"
       id="path1144" />
    <path
       style="fill:none;stroke:#000000;stroke-width:0.264583px;stroke-linecap:butt;stroke-linejoin:miter;stroke-opacity:1"
       d="m 54.067434,57.123602 51.631406,15.837169 11.6609,13.258718 -3.62586,9.269381 -17.706472,0.287814 -49.12416,-28.625594 z"
       id="path1146" />
    <path
       style="fill:none;stroke:#000000;stroke-width:0.264583px;stroke-linecap:butt;stroke-linejoin:miter;stroke-opacity:1"
       d="m 98.69191,35.380316 52.19071,-6.317068 16.30746,-15.722935 -37.64128,2.657084 z"
       id="path1508" />
    <path
       style="fill:none;stroke:#000000;stroke-width:0.264583px;stroke-linecap:butt;stroke-linejoin:miter;stroke-opacity:1"
       d="m 96.060047,101.10272 15.761503,24.7683 17.07448,1.4628 -18.07589,-21.25519 z"
       id="path1510" />
    <path
       style="fill:none;stroke:#000000;stroke-width:0.264583px;stroke-linecap:butt;stroke-linejoin:miter;stroke-opacity:1"
       d="m 116.26635,72.3169 34.43082,-7.42233 32.75439,19.900687 -28.03958,12.537698 -24.11405,-8.388138 z"
       id="path1512"
       sodipodi:nodetypes="cccccc" />
    <path
       style="fill:none;stroke:#000000;stroke-width:0.264583px;stroke-linecap:butt;stroke-linejoin:miter;stroke-opacity:1"
       d="m 121.87723,89.688089 -4.39732,12.398241 13.28987,17.06557 16.37126,-1.08004 2.15415,-16.97211 z"
       id="path1661" />
    <path
       style="fill:none;stroke:#000000;stroke-width:0.264583px;stroke-linecap:butt;stroke-linejoin:miter;stroke-opacity:1"
       d="M 149.85599,59.271818 180.25297,78.329831 169.3205,50.358494 159.43099,46.950722 Z"
       id="path1663"
       sodipodi:nodetypes="ccccc" />
  </g>
</svg>
