<?xml version="1.0" encoding="UTF-8" standalone="no"?>
<!-- Created with Inkscape (http://www.inkscape.org/) -->

<svg
   width="25"
   height="25"
   viewBox="0 0 6.6145835 6.6145835"
   version="1.1"
   id="svg27769"
   inkscape:version="1.1.2 (0a00cf5339, 2022-02-04)"
   sodipodi:docname="Repellence.svg"
   xmlns:inkscape="http://www.inkscape.org/namespaces/inkscape"
   xmlns:sodipodi="http://sodipodi.sourceforge.net/DTD/sodipodi-0.dtd"
   xmlns="http://www.w3.org/2000/svg"
   xmlns:svg="http://www.w3.org/2000/svg">
  <sodipodi:namedview
     id="namedview27771"
     pagecolor="#ffffff"
     bordercolor="#666666"
     borderopacity="1.0"
     inkscape:pageshadow="2"
     inkscape:pageopacity="0.0"
     inkscape:pagecheckerboard="0"
     inkscape:document-units="mm"
     showgrid="true"
     inkscape:zoom="27.622628"
     inkscape:cx="13.050894"
     inkscape:cy="12.109637"
     inkscape:window-width="1830"
     inkscape:window-height="1016"
     inkscape:window-x="0"
     inkscape:window-y="0"
     inkscape:window-maximized="1"
     inkscape:current-layer="layer1"
     units="px" />
  <defs
     id="defs27766" />
  <g
     inkscape:label="Layer 1"
     inkscape:groupmode="layer"
     id="layer1"
     transform="translate(0.05000002,-13.047392)">
    <g
       id="g1442"
       style="fill:#800080">
      <g
         id="g1407"
         style="fill:#800080">
        <path
           sodipodi:type="star"
           style="fill:#800080;stroke-width:0.377953"
           id="path1126"
           inkscape:flatsided="true"
           sodipodi:sides="6"
           sodipodi:cx="3"
           sodipodi:cy="3"
           sodipodi:r1="4"
           sodipodi:r2="3.4641018"
           sodipodi:arg1="1.5707963"
           sodipodi:arg2="2.0943951"
           inkscape:rounded="0"
           inkscape:randomized="0"
           transform="matrix(0.27515898,0.15886311,-0.15886311,0.27515898,1.0020463,13.951981)"
           d="m 3.0000001,7 -3.46410166,-1.9999999 -1.1e-7,-4 L 2.9999999,-1 l 3.4641017,1.99999991 10e-8,3.99999999 z" />
        <path
           sodipodi:type="star"
           style="fill:#800080;stroke-width:0.377953"
           id="path1150"
           inkscape:flatsided="true"
           sodipodi:sides="6"
           sodipodi:cx="3"
           sodipodi:cy="3"
           sodipodi:r1="4"
           sodipodi:r2="3.4641018"
           sodipodi:arg1="1.5707963"
           sodipodi:arg2="2.0943951"
           inkscape:rounded="0"
           inkscape:randomized="0"
           transform="matrix(0.27515898,0.15886311,-0.15886311,0.27515898,2.9084044,12.851346)"
           d="m 3.0000001,7 -3.46410166,-1.9999999 -1.1e-7,-4 L 2.9999999,-1 l 3.4641017,1.99999991 10e-8,3.99999999 z" />
        <path
           sodipodi:type="star"
           style="fill:#800080;stroke-width:0.377953"
           id="path1156"
           inkscape:flatsided="true"
           sodipodi:sides="6"
           sodipodi:cx="3"
           sodipodi:cy="3"
           sodipodi:r1="4"
           sodipodi:r2="3.4641018"
           sodipodi:arg1="1.5707963"
           sodipodi:arg2="2.0943951"
           inkscape:rounded="0"
           inkscape:randomized="0"
           transform="matrix(0.27515898,0.15886311,-0.15886311,0.27515898,2.9084039,15.052617)"
           d="m 3.0000001,7 -3.46410166,-1.9999999 -1.1e-7,-4 L 2.9999999,-1 l 3.4641017,1.99999991 10e-8,3.99999999 z" />
        <path
           sodipodi:type="star"
           style="fill:#800080;stroke-width:0.377953"
           id="path1162"
           inkscape:flatsided="true"
           sodipodi:sides="6"
           sodipodi:cx="3"
           sodipodi:cy="3"
           sodipodi:r1="4"
           sodipodi:r2="3.4641018"
           sodipodi:arg1="1.5707963"
           sodipodi:arg2="2.0943951"
           inkscape:rounded="0"
           inkscape:randomized="0"
           transform="matrix(0.27515898,0.15886311,-0.15886311,0.27515898,1.0020464,16.153253)"
           d="m 3.0000001,7 -3.46410166,-1.9999999 -1.1e-7,-4 L 2.9999999,-1 l 3.4641017,1.99999991 10e-8,3.99999999 z" />
        <path
           sodipodi:type="star"
           style="fill:#800080;stroke-width:0.377953"
           id="path1168"
           inkscape:flatsided="true"
           sodipodi:sides="6"
           sodipodi:cx="3"
           sodipodi:cy="3"
           sodipodi:r1="4"
           sodipodi:r2="3.4641018"
           sodipodi:arg1="1.5707963"
           sodipodi:arg2="2.0943951"
           inkscape:rounded="0"
           inkscape:randomized="0"
           transform="matrix(0.27515898,0.15886311,-0.15886311,0.27515898,2.9084041,17.253889)"
           d="m 3.0000001,7 -3.46410166,-1.9999999 -1.1e-7,-4 L 2.9999999,-1 l 3.4641017,1.99999991 10e-8,3.99999999 z" />
        <path
           sodipodi:type="star"
           style="fill:#800080;stroke-width:0.377953"
           id="path1174"
           inkscape:flatsided="true"
           sodipodi:sides="6"
           sodipodi:cx="3"
           sodipodi:cy="3"
           sodipodi:r1="4"
           sodipodi:r2="3.4641018"
           sodipodi:arg1="1.5707963"
           sodipodi:arg2="2.0943951"
           inkscape:rounded="0"
           inkscape:randomized="0"
           transform="matrix(0.27515898,0.15886311,-0.15886311,0.27515898,4.8147612,16.153253)"
           d="m 3.0000001,7 -3.46410166,-1.9999999 -1.1e-7,-4 L 2.9999999,-1 l 3.4641017,1.99999991 10e-8,3.99999999 z" />
      </g>
      <path
         sodipodi:type="star"
         style="fill:#800080;stroke-width:0.377953"
         id="path1180"
         inkscape:flatsided="true"
         sodipodi:sides="6"
         sodipodi:cx="3"
         sodipodi:cy="3"
         sodipodi:r1="4"
         sodipodi:r2="3.4641018"
         sodipodi:arg1="1.5707963"
         sodipodi:arg2="2.0943951"
         inkscape:rounded="0"
         inkscape:randomized="0"
         transform="matrix(0.27515898,0.15886311,-0.15886311,0.27515898,4.8147612,13.951981)"
         d="m 3.0000001,7 -3.46410166,-1.9999999 -1.1e-7,-4 L 2.9999999,-1 l 3.4641017,1.99999991 10e-8,3.99999999 z" />
    </g>
    <g
       id="g1451"
       style="fill:#ff00ff">
      <path
         sodipodi:type="star"
         style="fill:#ff00ff;stroke-width:0.377953"
         id="path1182"
         inkscape:flatsided="true"
         sodipodi:sides="6"
         sodipodi:cx="3"
         sodipodi:cy="3"
         sodipodi:r1="4"
         sodipodi:r2="3.4641018"
         sodipodi:arg1="1.5707963"
         sodipodi:arg2="2.0943951"
         inkscape:rounded="0"
         inkscape:randomized="0"
         transform="matrix(0.21352082,0.12327631,-0.12327631,0.21352082,4.8929152,14.243656)"
         d="m 3.0000001,7 -3.46410166,-1.9999999 -1.1e-7,-4 L 2.9999999,-1 l 3.4641017,1.99999991 10e-8,3.99999999 z" />
      <path
         sodipodi:type="star"
         style="fill:#ff00ff;stroke-width:0.377953"
         id="path972"
         inkscape:flatsided="true"
         sodipodi:sides="6"
         sodipodi:cx="3"
         sodipodi:cy="3"
         sodipodi:r1="4"
         sodipodi:r2="3.4641018"
         sodipodi:arg1="1.5707963"
         sodipodi:arg2="2.0943951"
         inkscape:rounded="0"
         inkscape:randomized="0"
         transform="matrix(0.21352083,0.12327631,-0.12327631,0.21352083,1.0802003,14.243656)"
         d="m 3.0000001,7 -3.46410166,-1.9999999 -1.1e-7,-4 L 2.9999999,-1 l 3.4641017,1.99999991 10e-8,3.99999999 z" />
      <path
         sodipodi:type="star"
         style="fill:#ff00ff;stroke-width:0.377953"
         id="path1152"
         inkscape:flatsided="true"
         sodipodi:sides="6"
         sodipodi:cx="3"
         sodipodi:cy="3"
         sodipodi:r1="4"
         sodipodi:r2="3.4641018"
         sodipodi:arg1="1.5707963"
         sodipodi:arg2="2.0943951"
         inkscape:rounded="0"
         inkscape:randomized="0"
         transform="matrix(0.21352083,0.12327631,-0.12327631,0.21352083,2.9865584,13.143021)"
         d="m 3.0000001,7 -3.46410166,-1.9999999 -1.1e-7,-4 L 2.9999999,-1 l 3.4641017,1.99999991 10e-8,3.99999999 z" />
      <path
         sodipodi:type="star"
         style="fill:#ff00ff;stroke-width:0.377953"
         id="path1158"
         inkscape:flatsided="true"
         sodipodi:sides="6"
         sodipodi:cx="3"
         sodipodi:cy="3"
         sodipodi:r1="4"
         sodipodi:r2="3.4641018"
         sodipodi:arg1="1.5707963"
         sodipodi:arg2="2.0943951"
         inkscape:rounded="0"
         inkscape:randomized="0"
         transform="matrix(0.21352083,0.12327631,-0.12327631,0.21352083,2.9865579,15.344292)"
         d="m 3.0000001,7 -3.46410166,-1.9999999 -1.1e-7,-4 L 2.9999999,-1 l 3.4641017,1.99999991 10e-8,3.99999999 z" />
      <path
         sodipodi:type="star"
         style="fill:#ff00ff;stroke-width:0.377953"
         id="path1164"
         inkscape:flatsided="true"
         sodipodi:sides="6"
         sodipodi:cx="3"
         sodipodi:cy="3"
         sodipodi:r1="4"
         sodipodi:r2="3.4641018"
         sodipodi:arg1="1.5707963"
         sodipodi:arg2="2.0943951"
         inkscape:rounded="0"
         inkscape:randomized="0"
         transform="matrix(0.21352083,0.12327631,-0.12327631,0.21352083,1.0802004,16.444928)"
         d="m 3.0000001,7 -3.46410166,-1.9999999 -1.1e-7,-4 L 2.9999999,-1 l 3.4641017,1.99999991 10e-8,3.99999999 z" />
      <path
         sodipodi:type="star"
         style="fill:#ff00ff;stroke-width:0.377953"
         id="path1170"
         inkscape:flatsided="true"
         sodipodi:sides="6"
         sodipodi:cx="3"
         sodipodi:cy="3"
         sodipodi:r1="4"
         sodipodi:r2="3.4641018"
         sodipodi:arg1="1.5707963"
         sodipodi:arg2="2.0943951"
         inkscape:rounded="0"
         inkscape:randomized="0"
         transform="matrix(0.21352083,0.12327631,-0.12327631,0.21352083,2.9865581,17.545564)"
         d="m 3.0000001,7 -3.46410166,-1.9999999 -1.1e-7,-4 L 2.9999999,-1 l 3.4641017,1.99999991 10e-8,3.99999999 z" />
      <path
         sodipodi:type="star"
         style="fill:#ff00ff;stroke-width:0.377953"
         id="path1176"
         inkscape:flatsided="true"
         sodipodi:sides="6"
         sodipodi:cx="3"
         sodipodi:cy="3"
         sodipodi:r1="4"
         sodipodi:r2="3.4641018"
         sodipodi:arg1="1.5707963"
         sodipodi:arg2="2.0943951"
         inkscape:rounded="0"
         inkscape:randomized="0"
         transform="matrix(0.21352083,0.12327631,-0.12327631,0.21352083,4.8929152,16.444928)"
         d="m 3.0000001,7 -3.46410166,-1.9999999 -1.1e-7,-4 L 2.9999999,-1 l 3.4641017,1.99999991 10e-8,3.99999999 z" />
    </g>
  </g>
</svg>
